<svg width="33" height="33" viewBox="0 0 33 33" fill="none" xmlns="http://www.w3.org/2000/svg">
<path d="M30.102 0.7H2.89796C1.68574 0.7 0.7 1.68574 0.7 2.89796V30.102C0.7 31.3143 1.68574 32.3 2.89796 32.3H30.102C31.3143 32.3 32.3 31.3143 32.3 30.102V2.89796C32.3 1.68574 31.3143 0.7 30.102 0.7ZM30.4347 30.102C30.4347 30.2852 30.2852 30.4347 30.102 30.4347H2.89796C2.7148 30.4347 2.56531 30.2852 2.56531 30.102V2.89796C2.56531 2.7148 2.7148 2.56531 2.89796 2.56531H30.102C30.2852 2.56531 30.4347 2.7148 30.4347 2.89796V30.102Z" fill="#FCFCFC" stroke="#FCFCFC" stroke-width="0.6"/>
<path d="M22.8267 12.0879H19.9635V9.52464H22.1941C22.7092 9.52464 23.1267 9.10709 23.1267 8.59199V4.16341C23.1267 3.6484 22.7092 3.23076 22.1941 3.23076H18.3982C17.036 3.23076 16.0112 3.59561 15.2466 4.12791C14.4848 4.65823 13.9978 5.34303 13.689 5.96062C13.0446 7.24935 13.0369 8.52427 13.0369 8.59199V12.0879H10.1737C9.65857 12.0879 9.24102 12.5055 9.24102 13.0206V18.0818C9.24102 18.5969 9.65857 19.0144 10.1737 19.0144H12.4043V28.5206C12.4043 29.0357 12.8218 29.4532 13.3369 29.4532H19.0308C19.5459 29.4532 19.9635 29.0357 19.9635 28.5206V18.3818H22.1941C22.6582 18.3818 23.0518 18.0405 23.1173 17.581L23.75 13.1524C23.7882 12.8848 23.7085 12.6138 23.5313 12.4095C23.3542 12.2052 23.0971 12.0879 22.8267 12.0879ZM21.7514 13.9532L21.3852 16.5165H19.0308C18.5157 16.5165 18.0982 16.934 18.0982 17.4491V27.5879H14.2696V18.0818C14.2696 17.5668 13.8521 17.1491 13.3369 17.1491H11.1063V13.9532H13.9696C14.4847 13.9532 14.9022 13.5357 14.9022 13.0206V8.59552C14.9026 8.57514 14.9198 7.64821 15.3739 6.762C15.9361 5.66515 16.9289 5.09607 18.3982 5.09607H21.2614V7.65933H19.6635C18.9178 7.65933 18.0982 8.20553 18.0982 9.22464V13.0206C18.0982 13.5357 18.5157 13.9532 19.0308 13.9532H21.7514Z" fill="#FCFCFC" stroke="#FCFCFC" stroke-width="0.6"/>
</svg>
