<svg width="32" height="32" viewBox="0 0 32 32" fill="none" xmlns="http://www.w3.org/2000/svg">
<path d="M16 0C11.651 0 11.109 0.021 9.40695 0.093C7.69795 0.177 6.54195 0.442 5.52195 0.838C4.46995 1.25 3.57395 1.797 2.68895 2.687C1.79795 3.572 1.24595 4.468 0.839953 5.52C0.443953 6.54 0.178953 7.696 0.0949531 9.405C0.0179531 11.108 0.00195312 11.649 0.00195312 15.998C0.00195312 20.347 0.0229531 20.889 0.0949531 22.591C0.178953 24.295 0.443953 25.456 0.839953 26.476C1.25195 27.528 1.79895 28.424 2.68895 29.309C3.57395 30.2 4.46995 30.752 5.52195 31.158C6.54195 31.549 7.70295 31.819 9.40695 31.903C11.11 31.98 11.651 31.996 16 31.996C20.349 31.996 20.891 31.975 22.593 31.903C24.297 31.819 25.458 31.548 26.478 31.158C27.53 30.746 28.426 30.199 29.311 29.309C30.202 28.424 30.754 27.533 31.16 26.476C31.551 25.456 31.821 24.295 31.905 22.591C31.982 20.888 31.998 20.347 31.998 15.998C31.998 11.649 31.977 11.107 31.905 9.405C31.821 7.701 31.55 6.534 31.16 5.52C30.748 4.468 30.201 3.572 29.311 2.687C28.426 1.796 27.535 1.244 26.478 0.838C25.458 0.442 24.297 0.177 22.593 0.093C20.89 0.016 20.349 0 16 0V0ZM16 2.88C20.271 2.88 20.781 2.901 22.469 2.973C24.026 3.046 24.874 3.306 25.437 3.526C26.188 3.817 26.713 4.161 27.281 4.723C27.838 5.28 28.182 5.811 28.473 6.562C28.693 7.125 28.953 7.973 29.026 9.53C29.098 11.218 29.119 11.729 29.119 15.999C29.119 20.269 29.098 20.78 29.02 22.468C28.936 24.025 28.676 24.873 28.457 25.436C28.154 26.187 27.816 26.712 27.258 27.28C26.695 27.837 26.159 28.181 25.414 28.472C24.858 28.692 23.998 28.952 22.435 29.025C20.738 29.097 20.238 29.118 15.956 29.118C11.674 29.118 11.175 29.097 9.47595 29.019C7.91895 28.935 7.05995 28.675 6.49695 28.456C5.73695 28.153 5.21595 27.815 4.65795 27.257C4.09495 26.694 3.73695 26.158 3.46095 25.413C3.23695 24.857 2.98095 23.997 2.89795 22.434C2.84095 20.757 2.81395 20.237 2.81395 15.975C2.81395 11.715 2.84095 11.194 2.89795 9.496C2.98095 7.933 3.23695 7.075 3.46095 6.517C3.73695 5.756 4.09595 5.236 4.65795 4.673C5.21495 4.116 5.73695 3.756 6.49695 3.474C7.05995 3.255 7.89795 2.995 9.46095 2.917C11.158 2.856 11.658 2.834 15.934 2.834L16 2.88ZM16 7.787C11.459 7.787 7.78695 11.464 7.78695 16C7.78695 20.541 11.464 24.213 16 24.213C20.541 24.213 24.213 20.536 24.213 16C24.213 11.459 20.536 7.787 16 7.787ZM16 21.333C13.052 21.333 10.667 18.948 10.667 16C10.667 13.052 13.052 10.667 16 10.667C18.948 10.667 21.333 13.052 21.333 16C21.333 18.948 18.948 21.333 16 21.333ZM26.464 7.459C26.464 8.522 25.599 9.38 24.541 9.38C23.478 9.38 22.62 8.521 22.62 7.459C22.62 6.402 23.484 5.542 24.541 5.542C25.598 5.542 26.464 6.402 26.464 7.459Z" fill="#FCFCFC"/>
</svg>
