<svg width="145" height="80" viewBox="0 0 145 80" fill="none" xmlns="http://www.w3.org/2000/svg">
<path d="M23.5218 31.336C24.3218 31.336 24.7218 31.848 24.7218 32.872C24.7218 33.896 24.7058 34.664 24.6738 35.176C24.5458 36.328 24.0338 36.984 23.1378 37.144C20.2898 37.56 18.1778 37.768 16.8018 37.768C12.0338 37.768 8.75375 36.424 6.96175 33.736C5.16975 31.048 4.27375 26.2 4.27375 19.192C4.27375 14.072 4.65775 10.168 5.42575 7.48C6.22575 4.76 7.48975 2.856 9.21775 1.768C10.9778 0.679999 13.5858 0.136 17.0418 0.136C20.5298 0.136 23.0738 0.679999 24.6738 1.768C24.9938 1.992 25.1538 2.264 25.1538 2.584C25.1538 2.904 24.9938 3.512 24.6738 4.408C24.3858 5.272 24.0978 5.896 23.8098 6.28C23.5538 6.632 23.2818 6.808 22.9938 6.808C22.7058 6.808 22.4818 6.792 22.3218 6.76C19.9218 6.28 17.8418 6.04 16.0818 6.04C14.3538 6.04 13.2178 7 12.6738 8.92C12.1618 10.84 11.9058 13.96 11.9058 18.28C11.9058 22.568 12.0178 25.56 12.2418 27.256C12.4658 28.952 12.8818 30.136 13.4898 30.808C14.0978 31.48 15.0578 31.816 16.3698 31.816C17.7138 31.816 19.2178 31.736 20.8818 31.576C22.5778 31.416 23.4578 31.336 23.5218 31.336ZM39.652 35.512C37.988 37.016 36.5 37.768 35.188 37.768C33.908 37.768 32.868 37.672 32.068 37.48C31.268 37.32 30.548 36.952 29.908 36.376C29.268 35.768 28.82 34.904 28.564 33.784C28.308 32.664 28.18 31.176 28.18 29.32C28.18 26.728 29.444 24.952 31.972 23.992L38.836 22.216C38.804 20.136 38.596 18.792 38.212 18.184C37.828 17.576 36.996 17.272 35.716 17.272C34.436 17.272 33.332 17.48 32.404 17.896L30.724 18.568H30.676C30.388 18.728 30.132 18.6 29.908 18.184C29.332 16.968 29.044 16.024 29.044 15.352C29.044 14.648 29.092 14.264 29.188 14.2C29.316 14.104 29.38 14.04 29.38 14.008C30.98 12.952 33.044 12.424 35.572 12.424C38.132 12.424 40.1 12.76 41.476 13.432C42.852 14.104 43.844 15.336 44.452 17.128C45.092 18.888 45.412 21.512 45.412 25L45.316 37C45.316 37.192 45.284 37.32 45.22 37.384C45.092 37.64 44.484 37.768 43.396 37.768C41.412 37.768 40.42 37.512 40.42 37L39.652 35.512ZM33.508 29.416C33.508 31.72 34.18 32.936 35.524 33.064C36.452 33.064 37.124 32.904 37.54 32.584C38.436 31.976 38.884 29.704 38.884 25.768C37.22 25.992 35.908 26.456 34.948 27.16C33.988 27.832 33.508 28.584 33.508 29.416ZM62.8634 18.856L62.5754 18.76L60.7514 17.848C59.3754 17.304 58.1914 17.032 57.1994 17.032C55.7594 17.096 55.0394 17.784 55.0394 19.096C55.0394 19.608 55.3114 20.024 55.8554 20.344C56.4314 20.664 56.8954 20.92 57.2474 21.112C57.5994 21.272 58.1114 21.512 58.7834 21.832C61.1834 22.856 62.9594 23.992 64.1114 25.24C65.2954 26.488 65.8874 27.72 65.8874 28.936C65.8874 31.592 65.1834 33.736 63.7754 35.368C62.3674 36.968 60.4474 37.768 58.0154 37.768C55.6154 37.768 53.7274 37.448 52.3514 36.808C50.9754 36.168 49.8234 35.256 48.8954 34.072C48.7674 34.008 48.7034 33.912 48.7034 33.784C48.7034 33.656 48.7194 33.496 48.7514 33.304C48.8154 33.112 49.1994 32.6 49.9034 31.768C50.6074 30.904 51.1674 30.472 51.5834 30.472C51.7114 30.472 51.8394 30.536 51.9674 30.664C53.6634 32.008 55.3114 32.68 56.9114 32.68C57.8074 32.68 58.4794 32.424 58.9274 31.912C59.3754 31.4 59.5994 30.84 59.5994 30.232C59.5994 29.624 59.3434 29.128 58.8314 28.744C58.3194 28.36 57.6794 27.992 56.9114 27.64C56.1754 27.256 55.7754 27.048 55.7114 27.016C55.6474 26.984 55.5514 26.936 55.4234 26.872C55.3274 26.808 55.2314 26.76 55.1354 26.728C53.5034 25.928 52.1114 24.936 50.9594 23.752C49.8394 22.536 49.2794 21.192 49.2794 19.72C49.2794 17.16 49.9354 15.304 51.2474 14.152C52.5914 13 54.7034 12.424 57.5834 12.424C58.6714 12.424 59.7114 12.552 60.7034 12.808C62.0474 13.16 63.0074 13.576 63.5834 14.056H63.6314C63.8874 14.216 64.0314 14.408 64.0634 14.632C64.1274 14.856 64.1114 15.336 64.0154 16.072C63.6954 17.928 63.3114 18.856 62.8634 18.856ZM80.4333 35.512C78.7693 37.016 77.2813 37.768 75.9693 37.768C74.6893 37.768 73.6493 37.672 72.8493 37.48C72.0493 37.32 71.3293 36.952 70.6893 36.376C70.0493 35.768 69.6013 34.904 69.3453 33.784C69.0893 32.664 68.9613 31.176 68.9613 29.32C68.9613 26.728 70.2253 24.952 72.7533 23.992L79.6172 22.216C79.5853 20.136 79.3773 18.792 78.9933 18.184C78.6093 17.576 77.7773 17.272 76.4973 17.272C75.2173 17.272 74.1133 17.48 73.1853 17.896L71.5053 18.568H71.4573C71.1693 18.728 70.9133 18.6 70.6893 18.184C70.1133 16.968 69.8253 16.024 69.8253 15.352C69.8253 14.648 69.8733 14.264 69.9693 14.2C70.0973 14.104 70.1613 14.04 70.1613 14.008C71.7613 12.952 73.8253 12.424 76.3533 12.424C78.9133 12.424 80.8813 12.76 82.2573 13.432C83.6333 14.104 84.6253 15.336 85.2333 17.128C85.8733 18.888 86.1933 21.512 86.1933 25L86.0973 37C86.0973 37.192 86.0653 37.32 86.0013 37.384C85.8733 37.64 85.2653 37.768 84.1773 37.768C82.1933 37.768 81.2013 37.512 81.2013 37L80.4333 35.512ZM74.2893 29.416C74.2893 31.72 74.9613 32.936 76.3053 33.064C77.2333 33.064 77.9053 32.904 78.3213 32.584C79.2173 31.976 79.6653 29.704 79.6653 25.768C78.0013 25.992 76.6893 26.456 75.7293 27.16C74.7693 27.832 74.2893 28.584 74.2893 29.416ZM108.571 37.768C106.203 37.768 104.459 36.808 103.339 34.888C102.251 32.936 101.707 29.56 101.707 24.76C101.707 19.96 102.395 16.712 103.771 15.016C105.179 13.288 107.819 12.424 111.691 12.424H113.995V0.903998C113.995 0.391999 114.555 0.136 115.675 0.136C116.795 0.136 117.723 0.216 118.459 0.375999C119.195 0.503998 119.579 0.679997 119.611 0.903998L120.427 16.216V37C120.427 37.192 120.411 37.32 120.379 37.384C120.219 37.64 119.627 37.768 118.603 37.768C117.579 37.768 116.699 37.688 115.963 37.528C115.259 37.4 114.907 37.224 114.907 37L113.995 35.512C113.067 36.12 112.411 36.552 112.027 36.808C110.971 37.448 109.819 37.768 108.571 37.768ZM111.691 17.032C110.507 17.032 109.691 17.528 109.243 18.52C108.827 19.48 108.619 21.128 108.619 23.464C108.619 25.768 108.619 27.288 108.619 28.024C108.651 28.76 108.683 29.608 108.715 30.568C108.779 32.296 109.003 33.16 109.387 33.16C110.539 33.16 112.075 32.584 113.995 31.432V17.032H111.691ZM135.699 35.512C134.035 37.016 132.547 37.768 131.235 37.768C129.955 37.768 128.915 37.672 128.115 37.48C127.315 37.32 126.595 36.952 125.955 36.376C125.315 35.768 124.867 34.904 124.611 33.784C124.355 32.664 124.227 31.176 124.227 29.32C124.227 26.728 125.491 24.952 128.019 23.992L134.883 22.216C134.851 20.136 134.643 18.792 134.259 18.184C133.875 17.576 133.043 17.272 131.763 17.272C130.483 17.272 129.379 17.48 128.451 17.896L126.771 18.568H126.723C126.435 18.728 126.179 18.6 125.955 18.184C125.379 16.968 125.091 16.024 125.091 15.352C125.091 14.648 125.139 14.264 125.235 14.2C125.363 14.104 125.427 14.04 125.427 14.008C127.027 12.952 129.091 12.424 131.619 12.424C134.179 12.424 136.147 12.76 137.523 13.432C138.899 14.104 139.891 15.336 140.499 17.128C141.139 18.888 141.459 21.512 141.459 25L141.363 37C141.363 37.192 141.331 37.32 141.267 37.384C141.139 37.64 140.531 37.768 139.443 37.768C137.459 37.768 136.467 37.512 136.467 37L135.699 35.512ZM129.555 29.416C129.555 31.72 130.227 32.936 131.571 33.064C132.499 33.064 133.171 32.904 133.587 32.584C134.483 31.976 134.931 29.704 134.931 25.768C133.267 25.992 131.955 26.456 130.995 27.16C130.035 27.832 129.555 28.584 129.555 29.416ZM8.48706 77.992V48.664H2.48706C1.71906 48.632 1.22306 48.424 0.999063 48.04C0.711063 47.592 0.567063 46.792 0.567063 45.64C0.567063 43.816 1.11106 42.904 2.19906 42.904H25.6711C27.5271 42.904 28.4551 43.4 28.4551 44.392C28.4551 47.24 27.6871 48.664 26.1511 48.664L14.7751 48.616L15.2071 58.36L15.2551 77.896C15.2551 78.504 15.2391 78.904 15.2071 79.096C15.0791 79.544 14.4551 79.768 13.3351 79.768C10.1031 79.768 8.48706 79.176 8.48706 77.992ZM20.8231 79V55.192C20.8231 54.68 21.3991 54.424 22.5511 54.424C23.7031 54.424 24.7911 54.504 25.8151 54.664C26.8391 54.824 27.3511 55 27.3511 55.192V79C27.3511 79.192 27.3351 79.32 27.3031 79.384C27.1431 79.64 26.5351 79.768 25.4791 79.768C24.4231 79.768 23.3831 79.688 22.3591 79.528C21.3351 79.368 20.8231 79.192 20.8231 79ZM34.8357 53.56L32.4357 53.128L31.7157 50.584L32.8197 44.152L34.3557 42.136L40.1157 43.576L34.8357 53.56ZM54.8431 42.088C57.0511 42.088 58.2511 42.584 58.4431 43.576L61.7071 58.312L65.0191 77.944C65.0831 78.264 65.1151 78.568 65.1151 78.856C65.1151 79.112 65.0351 79.32 64.8751 79.48C64.7151 79.672 64.1711 79.768 63.2431 79.768C60.3951 79.768 58.8751 79.16 58.6831 77.944L57.0031 68.056H50.2831L48.7951 77.992C48.6991 78.664 48.5711 79.112 48.4111 79.336C48.2831 79.56 48.0911 79.688 47.8351 79.72C47.5791 79.752 47.1631 79.768 46.5871 79.768H45.2431C44.1231 79.768 43.4191 79.704 43.1311 79.576C42.4271 79.32 42.0271 79.032 41.9311 78.712C41.8991 78.552 41.8831 78.408 41.8831 78.28C41.8831 78.152 42.2191 76.04 42.8911 71.944C43.5631 67.848 44.3791 62.968 45.3391 57.304C46.3311 51.64 46.9711 47.928 47.2591 46.168C47.5791 44.408 47.7551 43.416 47.7871 43.192C47.9151 42.456 50.2671 42.088 54.8431 42.088ZM53.4031 48.376L51.1951 62.248H55.9471L53.4031 48.376ZM75.0541 79C75.0541 79.192 75.0221 79.32 74.9581 79.384C74.8301 79.64 74.2381 79.768 73.1821 79.768C72.1261 79.768 71.0861 79.688 70.0621 79.528C69.0701 79.368 68.5741 79.192 68.5741 79V42.904C68.5741 42.392 69.1341 42.136 70.2541 42.136C71.3741 42.136 72.3021 42.216 73.0381 42.376C73.7741 42.504 74.1581 42.68 74.1901 42.904L75.0541 58.312V79ZM79.4547 60.28C78.9747 60.28 78.7347 59.528 78.7347 58.024C78.7347 57.928 78.7347 57.832 78.7347 57.736C78.7347 56.04 78.9747 55.192 79.4547 55.192H93.6627L94.4307 55.96V60.28L86.0787 73.624H95.1987C95.7107 73.624 95.9667 74.264 95.9667 75.544C95.9667 77.784 95.7107 78.936 95.1987 79H79.8387L79.0707 78.232V74.392L88.3827 60.28H79.4547ZM99.4669 79V55.192C99.4669 54.68 100.043 54.424 101.195 54.424C102.347 54.424 103.435 54.504 104.459 54.664C105.483 54.824 105.995 55 105.995 55.192V79C105.995 79.192 105.979 79.32 105.947 79.384C105.787 79.64 105.179 79.768 104.123 79.768C103.067 79.768 102.027 79.688 101.003 79.528C99.9789 79.368 99.4669 79.192 99.4669 79ZM102.443 49.048C100.139 49.048 98.9869 47.896 98.9869 45.592C98.9869 43.288 100.139 42.136 102.443 42.136C104.747 42.136 105.899 43.288 105.899 45.592C105.899 47.896 104.747 49.048 102.443 49.048ZM115.862 57.112C118.486 55.32 120.214 54.424 121.046 54.424C121.91 54.424 122.678 54.584 123.35 54.904C124.054 55.224 124.566 55.544 124.886 55.864L125.318 56.296C124.838 58.344 124.47 59.624 124.214 60.136C123.958 60.648 123.606 60.904 123.158 60.904C122.742 60.904 122.198 60.728 121.526 60.376C120.854 60.024 120.246 59.848 119.702 59.848C119.158 59.848 118.07 60.344 116.438 61.336V79C116.438 79.192 116.406 79.32 116.342 79.384C116.214 79.64 115.622 79.768 114.566 79.768C113.51 79.768 112.518 79.688 111.59 79.528C110.694 79.368 110.246 79.192 110.246 79V55.192C110.246 54.68 110.966 54.424 112.406 54.424C113.846 54.424 114.678 54.68 114.902 55.192V55.288L115.862 57.112ZM138.254 77.512C136.59 79.016 135.102 79.768 133.79 79.768C132.51 79.768 131.47 79.672 130.67 79.48C129.87 79.32 129.15 78.952 128.51 78.376C127.87 77.768 127.422 76.904 127.166 75.784C126.91 74.664 126.782 73.176 126.782 71.32C126.782 68.728 128.046 66.952 130.574 65.992L137.438 64.216C137.406 62.136 137.198 60.792 136.814 60.184C136.43 59.576 135.598 59.272 134.318 59.272C133.038 59.272 131.934 59.48 131.006 59.896L129.326 60.568H129.278C128.99 60.728 128.734 60.6 128.51 60.184C127.934 58.968 127.646 58.024 127.646 57.352C127.646 56.648 127.694 56.264 127.79 56.2C127.918 56.104 127.982 56.04 127.982 56.008C129.582 54.952 131.646 54.424 134.174 54.424C136.734 54.424 138.702 54.76 140.078 55.432C141.454 56.104 142.446 57.336 143.054 59.128C143.694 60.888 144.014 63.512 144.014 67L143.918 79C143.918 79.192 143.886 79.32 143.822 79.384C143.694 79.64 143.086 79.768 141.998 79.768C140.014 79.768 139.022 79.512 139.022 79L138.254 77.512ZM132.11 71.416C132.11 73.72 132.782 74.936 134.126 75.064C135.054 75.064 135.726 74.904 136.142 74.584C137.038 73.976 137.486 71.704 137.486 67.768C135.822 67.992 134.51 68.456 133.55 69.16C132.59 69.832 132.11 70.584 132.11 71.416Z" fill="#FCFCFC"/>
</svg>
