<svg width="17" height="18" viewBox="0 0 17 18" fill="none" xmlns="http://www.w3.org/2000/svg">
<path d="M8.57896 16.7504L8.50793 16.68L8.57896 16.7504C8.72582 16.6021 12.2388 13.0538 13.4491 11.5561C14.394 10.3868 14.8938 8.97676 14.8938 7.47945C14.8938 3.84965 11.8852 0.9 8.19086 0.9C4.49652 0.9 1.48789 3.84965 1.48789 7.47945C1.48789 8.9767 1.98815 10.3873 2.93392 11.5574C4.14399 13.0546 7.65585 16.6021 7.80271 16.7503C7.80271 16.7503 7.80271 16.7503 7.80272 16.7503L8.11977 17.0704L8.19081 17.1421L8.26185 17.0704L8.57896 16.7504ZM12.6005 10.8911C11.6574 12.0581 9.15873 14.6244 8.19087 15.6104C7.22313 14.6245 4.72537 12.0589 3.78251 10.8923C2.99064 9.91254 2.57243 8.73283 2.57243 7.47945C2.57243 4.44227 5.09113 1.96799 8.19086 1.96799C11.2906 1.96799 13.8093 4.44227 13.8092 7.47945C13.8092 8.73295 13.3915 9.91226 12.6005 10.8911Z" fill="#07504D" stroke="#07504D" stroke-width="0.2"/>
<path d="M8.19075 3.47178C5.98213 3.47178 4.18223 5.23532 4.18223 7.40719C4.18223 9.57905 5.98217 11.3426 8.19075 11.3426C10.3993 11.3426 12.1993 9.57901 12.1993 7.40719C12.1993 5.23536 10.3994 3.47178 8.19075 3.47178ZM8.19075 10.2746C6.57674 10.2746 5.26677 8.9864 5.26677 7.40719C5.26677 5.82793 6.57678 4.53977 8.19075 4.53977C9.80471 4.53977 11.1147 5.82797 11.1147 7.40719C11.1147 8.98644 9.80476 10.2746 8.19075 10.2746Z" fill="#07504D" stroke="#07504D" stroke-width="0.2"/>
</svg>
